# xmcd
#
# Track frame offsets:
#	150
#	21758
#	43375
#	66840
#	93753
#	125010
#	164855
#
# Disc length: 2413 seconds
#
# Revision: 1
# Processed by: cddbd v1.5.2PL0 Copyright (c) Steve Scherf et al.
# Submitted via: dBpowerAMP V4.0
#
DISCID=62096b07
DTITLE=Mint Condition - Breakin' My Heart (Pretty Brown Eyes) CDS
DYEAR=1991
DGENRE=R&B
TTITLE0=Breakin' My Heart (Pretty Brown Eyes) [Album Edit]
TTITLE1=Breakin' My Heart (Pretty Brown Eyes) [Brown Eyed Edit]
TTITLE2=Breakin' My Heart (Pretty Brown Eyes) [Tear Drop Edit]
TTITLE3=Breakin' My Heart (Pretty Brown Eyes) [Album Version]
TTITLE4=Breakin' My Heart (Pretty Brown Eyes) [Brown Eyed 12" Mix]
TTITLE5=Breakin' My Heart (Pretty Brown Eyes) [Tear Drop 12" Mix]
TTITLE6=Breakin' My Heart (Pretty Brown Eyes) [Brown Eyed Instrumental]
EXTD=
EXTT0=
EXTT1=
EXTT2=
EXTT3=
EXTT4=
EXTT5=
EXTT6=
PLAYORDER=
